<?xml version="1.0" encoding="UTF-8"?>
<svg xmlns="http://www.w3.org/2000/svg" viewBox="0 0 64 64" width="64" height="64" role="img" aria-label="euler">
  <title>euler</title>
  <path d="M55.97 33.8 20.7 54.17a5.12 5.12 0 0 0-1.88 7 5.12 5.12 0 0 0 7 1.87L61.1 42.68a5.12 5.12 0 0 0 1.87-7 5.12 5.12 0 0 0-7-1.88Z" fill="#FF7829"/>
  <path d="M31.58 27.28 5.13 42.55a5.12 5.12 0 0 0-1.88 7 5.12 5.12 0 0 0 7 1.88L36.7 36.15a5.12 5.12 0 0 0 1.87-7 5.12 5.12 0 0 0-7-1.87Z" fill="#FCBF22"/>
  <path d="M38.12 2.88 2.85 23.25a5.12 5.12 0 0 0-1.88 7 5.12 5.12 0 0 0 7 1.87L43.25 11.75a5.12 5.12 0 0 0 1.87-7 5.12 5.12 0 0 0-7-1.87Z" fill="#2AE5B9"/>
</svg>
